<svg xmlns="http://www.w3.org/2000/svg" viewBox="550 40 89 185" xmlns:xlink="http://www.w3.org/1999/xlink"><defs><path id="a" d="M88.983 184.684V.357H.04v184.327z"/></defs><g fill="none" fill-rule="evenodd"><g transform="translate(550 40)"><mask id="b" fill="#fff"><use xlink:href="#a"/></mask><path fill="#514745" d="M17.665 120.754c-.118-.164-.233-.33-.346-.492-.008.3.057.518.345.492zm-8.23-12.388c.04-.002.076-.002.112-.002-.012-.3-.024-.6-.034-.9-.038.005-.074.01-.11.013.012.297.02.592.033.89zm8.726-1.338c.05-.03.097-.062.145-.096-.1-.227-.2-.46-.3-.693-.034.02-.065.043-.1.062.085.242.172.484.256.726zm9.584-37.49l.03.107c.232-.115.46-.233.69-.348-.01-.043-.022-.088-.037-.13l-.683.37zM9.076 72.88c.03.043.062.083.093.124.11-.146.223-.288.324-.443.02-.027 0-.132-.03-.16-.025-.027-.11-.015-.13.016-.092.145-.174.306-.258.462zm-1.91-8.595c.033.007.067.012.1.02.09-.265.258-.512.174-.81-.04-.01-.082-.02-.123-.033l-.15.823zm15.414 8.03l.048.123.81-.534-.057-.144-.8.554zM8.554 74.3l.043.13c.197-.09.4-.18.594-.283.028-.014.037-.108.04-.165 0-.02-.058-.065-.075-.053-.202.12-.402.246-.6.37zm28.09 48.913c-.03.08-.055.132-.05.137.216.182.437.36.66.542.02-.043.044-.084.068-.13l-.678-.55zM30.9 130.34c.183.31.438.516.796.464-.265-.154-.53-.31-.796-.463zm29.387-63.915l-.094-.053c-.18.418-.47.787-.392 1.326.162-.424.326-.848.487-1.273zm-23.232-.273c.698.038.698.038.86-.405-.273.304-.602-.034-.86.405zM20.01 63.445l-.44.92c.522-.304.522-.304.44-.92zm-.976 41.526c-.03.02-.063.037-.09.052.126.433.256.867.393 1.297.007.02.096.032.123.008.03-.02.05-.113.036-.15-.152-.406-.308-.804-.462-1.207zm-9.23-3.024l.11.03c.08-.19.172-.376.232-.575.03-.094.02-.222-.007-.322-.008-.03-.136-.055-.177-.02-.07.058-.15.16-.16.252-.02.21 0 .422 0 .636zm23.56-73.973c-.02-.027-.052-.084-.068-.08-.315.128-.63.255-.938.403-.037.017-.053.163-.05.247 0 .032.083.094.112.08.308-.168.613-.346.92-.528.018-.01.018-.08.025-.122zm4.232 13.243c-.692.305-.724.374-.524 1.02.19-.365.356-.694.524-1.02zm25.118-15.363c.024-.503-.185-1.038-.57-1.253.043.292.033.556.12.73.108.217.298.358.45.523zM6.83 66.615c-.153-.075-.328-.288-.396-.005-.072.3-.146.645-.026 1.127.173-.463.296-.784.423-1.122zM22.42 176.38l-.09-.018c-.05.542-.19 1.065-.22 1.688.106-.326.217-.573.26-.827.048-.278.036-.564.05-.844zm51.11-145.725c.008-.06.017-.12.024-.182-.252-.024-.505-.048-.76-.076-.24-.032-.48-.068-.72-.1.45.358.946.402 1.456.358zM21.894 82.25c.462-.13.928-.258 1.494-.416-.638-.39-1.06.052-1.494.417zm.02 11.468c.59.227.654.175.64-.542-.45.112-.45.112-.64.542zM15.94 75.315c.027.05.05.103.075.156.58-.53 1.25-.882 1.795-1.48l-.058-.116c-.604.482-1.208.96-1.81 1.44zm20.71 75.54c.008-.584-.093-1.114-.336-1.673-.235.756.18 1.17.335 1.674zM75.242 29.508c-.27.873-.875 1.568-.974 2.53.375-.818.793-1.61.973-2.53zm-40.466-9.88c-.72.13-1.323.59-1.852 1.266l1.852-1.266zM6.057 88.364c-.315.734-.68 1.44-.842 2.256.272-.757.777-1.383.842-2.256zm18.435 57.47c-.072-.47-.73-1.142-1.152-1.26.416.458.786.86 1.152 1.26zm.996-88.59l.02.06c.514-.358 1.03-.718 1.54-1.085.05-.037.11-.183.097-.197-.053-.07-.125-.15-.195-.15-.077 0-.16.075-.228.14-.414.408-.823.82-1.234 1.23zM6.143 81.33l-.14.053c.083.324.14.66.244.97.106.32.252.6.257.98.003.19.15.373.23.56l.09-.057c-.33-.787-.16-1.805-.68-2.506zm43.334-36.89c.02.61.233.974.418 1.416.17-.336.318-.595.426-.875.06-.15.044-.468-.126-.348-.296.204-.48.06-.717-.192zm-15.652 85.33c.784.895 1.85 1.18 2.785 1.74-.808-.833-1.833-1.205-2.785-1.74zM67.108 6.693c-.002-.054-.004-.112-.01-.164-1.137.002-2.263.235-3.376.726.002.062.004.125.01.185 1.123-.25 2.248-.498 3.376-.747zm-46.775 104.75c-.606-1.264-1.215-2.53-1.823-3.8.358 1.47 1.04 2.683 1.823 3.8zm5.325-21.086c2.396-.457 3.616-.85 4.008-1.3-1.398.447-2.723.742-4.008 1.3zM4.57 76.044c-.06.556-.115 1.122.092 1.66.142.375.28.752.423 1.128l.65 1.702c.028-.014.055-.03.08-.045-.412-1.478-.824-2.955-1.245-4.446zM19.145 61.95l.043.17c.346-.082.712-.11 1.044-.26.334-.153.642-.424.962-.647.3-.21.6-.43.902-.642-.024-.062-.046-.124-.067-.19-.96.545-1.954.946-2.885 1.57zm-9.102 51.393c-.176-1.518-.35-3.018-.522-4.522-.08.752-.117 1.497-.02 2.24.052.408.15.825.112 1.226-.048.518.132.8.43 1.057zm53.1-73.086c-.57 1.933-1.365 3.723-2.25 5.462.296-.217.568-.467.676-.867.194-.73.578-1.323.886-1.975.388-.816.62-1.69.688-2.62zm-17.77 74.992l.036-.12c-.81-.663-1.59-1.394-2.652-1.52.17.246.354.49.583.627.61.37 1.237.69 1.858 1.024.048.027.115-.004.175-.01zm3.486-69.66c-.088.385-.1.392.015.675.094.233.094.42-.052.667-.29.486-.267.918.02 1.397.45-.655.694-1.2.8-1.815.02-.113.012-.295-.04-.343-.234-.214-.492-.39-.744-.583zM26.72 146.45l-.106.086c.062.115.122.235.19.343.512.837 1.126 1.583 1.513 2.528.126.314.312.582.18.973-.013.04.045.104.064.152.092-.194.145-.376.248-.51.183-.238.15-.418.002-.634-.377-.565-.728-1.16-1.12-1.714-.3-.43-.645-.815-.972-1.222zm10.862-79.545c-.007-.048-.012-.093-.016-.14-.412.12-.828.212-1.232.36-.47.178-.924.418-1.43.492-.477.07-1.03.07-1.394.697-.048.09-.188.09-.28.144-.114.07-.22.16-.33.24l.04.14c.416-.305.933-.07 1.313-.6.056-.08.19-.08.29-.098.74-.115 1.486-.235 2.23-.333.22-.03.39-.136.516-.373.097-.177.196-.355.294-.53zm1.545 70.377c.035-.043.07-.084.107-.122-.35-.48-.686-.976-1.05-1.436-.437-.547-.9-1.067-1.353-1.6-.387-.458-.467-.47-1.042-.14.385.47.763.936 1.15 1.392.072.086.185.168.286.168.5.01.787.39 1.088.767.262.333.54.647.813.97zM6.717 131.29c.044-.38.034-.642-.178-.86-.125-.135-.207-.336-.308-.506-.132-.223-.173-.487-.01-.696.193-.246.135-.448.037-.68-.073-.17-.13-.353-.198-.523-.162-.396-.296-.813-.498-1.175-.2-.36-.472-.66-.712-.992.428 1.903.753 3.84 1.866 5.432zm12.265-67.627c-.067-.016-.096-.038-.122-.028-.028.01-.064.07-.088.06-.387-.15-.765-.01-1.152.1-.12.034-.284-.093-.397-.196-.1-.09-.164-.248-.243-.378-.022.362-.03.727.09.998.124.292.047.43-.13.563-.107.08-.234.122-.357.165-.147.053-.272.12-.3.317.26.07.512.072.704.204.2.138.344.4.517.612.226-.61.243-.628.72-.9.076-.044.185-.126.2-.21.093-.49.232-.944.56-1.31zm-12 64.302c.438-.63.445-.635.15-1.17-.193-.348-.417-.67-.61-1.02-.175-.318-.34-.646-.485-.987-.195-.46-.36-.942-.554-1.404-.15-.353-.32-.69-.488-1.058-.272.434-.272.434-.156.707.47 1.115.928 2.23 1.402 3.333.226.525.476 1.028.74 1.6zm19.953-11.206c-.017.033-.034.064-.05.098.074.067.136.148.216.203.707.507 1.42 1 2.124 1.514.695.516 1.453.91 2.035 1.642.248.315.645.478 1 .633.093.04.28-.197.425-.307-.058-.096-.1-.223-.18-.28-.39-.284-.792-.555-1.19-.82-.43-.284-.858-.57-1.293-.838-.565-.345-1.138-.673-1.703-1.01-.463-.277-.925-.558-1.384-.836zm5.22 50.403c-.186.173-.36.37-.56.51-.838.61-1.69 1.197-2.534 1.794-.135.098-.274.194-.392.316-.154.166-.322.247-.515.207-.245-.05-.418.13-.606.26-.196.13-.054.322-.08.488-.015.1-.048.196-.084.333 1.95-.71 3.475-2.087 4.77-3.907zM85.87 4.563c-.112-.505.145-.713.426-.9.085-.055.178-.08.26-.132.318-.196.416-.572.188-.845-.16-.19-.366-.346-.58-.398-.522-.13-1 .354-1.506.515-.072.024-.132.225-.183.352-.255.653-.36 1.326-.394 2.045.12-.12.213-.27.314-.3.478-.127.957-.223 1.477-.338zM27.764 151.886c.224.42.37.76.57 1.045.55.796.784 1.784 1.124 2.704.014.034.024.075.014.108-.112.477.06.906.107 1.352.048.44.12.87.18 1.307.157-.39.24-.767.277-1.15.062-.684.022-1.382-.185-1.993-.324-.96-.75-1.863-1.125-2.793-.15-.367-.312-.688-.743-.544-.03.01-.06-.008-.22-.036zm-7.67-44.442c-.027.015-.056.03-.08.04.04.14.072.29.132.42.16.36.335.713.508 1.065.447.9.885 1.805 1.51 2.534.287.33.587.645.874.983.098.118.206.264.233.425.09.546.358.927.69 1.275.452.467.89.957 1.32 1.424.184-.788-.245-1.167-.59-1.622-.662-.882-1.314-1.78-2.108-2.505-.31-.286-.57-.62-.678-1.1-.017-.073-.06-.142-.097-.202-.567-.91-1.142-1.82-1.715-2.735zm-4.845 36.144l.077-.092c-.347-.333-.693-.666-1.032-1.01-.606-.6-1.212-1.21-1.82-1.82-.054-.06-.128-.112-.165-.186-.283-.597-.72-1.01-1.166-1.422-.183-.172-.38-.333-.537-.537-.21-.278-.483-.424-.762-.568.077.173.183.31.262.465.04.084.08.257.04.305-.2.275-.03.4.107.556.185.202.373.4.54.62.63.84 1.4 1.462 2.204 2.037.65.468 1.292.957 1.937 1.436.103.077.21.144.315.216zm37.195-79.44c-.058-.137-.082-.216-.123-.278-.238-.38-.322-.362-.616.03-.1.138-.255.22-.392.3-.108.06-.286.034-.337.125-.264.473-.642.41-.988.475-.238.046-.48.04-.717.082-.195.036-.426.028-.435.426-.003.094-.118.204-.193.288-.546.592-1.313.46-1.866 1.045-.056.058-.17.022-.253.04l-.837.18c.06.118.118.147.178.133.762-.175 1.525-.24 2.29-.206.35.016.717-.063 1.073-.103.185-.022.344-.12.384-.377.047-.273.2-.364.38-.376.317-.022.6-.063.76-.532.038-.116.276-.125.408-.216.092-.067.207-.18.23-.293.112-.544.102-.55.497-.635.168-.04.336-.067.558-.108zm-20.437 64.625c-.493-.402-1.036-.676-1.616-.863-.642-.208-1.3-.388-1.924-.66-.727-.316-1.424-.718-2.14-1.075-.668-.336-1.355-.633-2.012-1-.484-.27-.94-.612-1.398-.94-.26-.182-.493-.403-.745-.6-.108-.083-.23-.14-.348-.215.127.546.41.908.748 1.155.726.533 1.474 1.03 2.242 1.48.84.49 1.717.882 2.552 1.373.42.25.86.365 1.32.444.727.122 1.45.273 2.165.455.396.102.77.294 1.156.445zm-2.922-95.8c.033.004.065.006.096.008.214-.628.47-1.24.63-1.89.096-.4.26-.593.532-.694.255-.095.517-.157.777-.236.13-.038.17-.077.172-.31.005-.462.11-.932.176-1.402.014-.108.024-.218.036-.328-.073.048-.157.077-.214.146-.393.456-.62.49-1.013.15-.11-.095-.23-.184-.36-.248-.383-.202-.424-.166-.51.402-.037.226-.08.454-.095.68-.03.39-.19.634-.447.814-.253.175-.493.39-.75.547-.186.112-.152.23-.116.422.073.414.353.527.583.678.332.216.59.444.453 1.02-.017.07.03.162.048.24zm10.557-.596c-.64.167-.882.608-1.02 1.248-.355 1.635-.165 3.22-.117 4.867.238-.115.443-.192.63-.312.25-.16.49-.203.75-.1.38.146.595-.123.545-.643-.032-.31-.058-.62-.082-.932-.067-.866-.128-1.74-.2-2.606-.014-.163-.072-.317-.118-.5-.134.104-.22.212-.315.238-.125.034-.308.07-.373-.014-.062-.082-.043-.33 0-.48.058-.23.17-.438.3-.767zm27.194 17.407c.03.017.06.034.09.048.418-.85.853-1.693 1.252-2.56.6-1.295 1.172-2.61 1.76-3.92.973-2.165 1.976-4.316 2.92-6.517.57-1.337 1.04-2.742 1.565-4.118.097-.257.013-.374-.148-.353-.137.02-.308.115-.407.247-.125.166-.197.398-.286.607-.675 1.674-1.343 3.34-2.012 5.004-.123.312-.24.626-.356.942-.332.907-.65 1.818-.99 2.712-.222.578-.463 1.15-.727 1.7-.308.628-.69 1.206-.972 1.846-.426.963-.794 1.963-1.18 2.953-.18.465-.338.94-.51 1.41zM41.55 83.663c-.006-.048-.01-.096-.018-.144-.2.023-.402.023-.6.07-.564.133-1.13.29-1.695.43-1.147.283-2.292.56-3.44.844-.183.043-.363.117-.546.15-1.165.214-2.332.406-3.496.63-.6.12-1.193.306-1.795.433-.465.096-.934.115-1.398.223-.796.187-1.585.412-2.374.623l-.03.56.826.188c.05.01.1.016.15.006.432-.074.87-.125 1.3-.237.756-.2 1.508-.433 2.26-.658 1.024-.31 2.044-.626 3.066-.945.094-.03.183-.086.274-.136.217-.114.426-.28.647-.337 1.728-.442 3.458-.86 5.187-1.288.56-.137 1.12-.276 1.682-.412zm1.738-39.078c.11-.192.166-.257.197-.336.23-.646.47-1.288.685-1.943.087-.27.203-.61.145-.837-.08-.328.007-.575.096-.836.42-1.214.853-2.424 1.322-3.755-.477.177-.87.38-1.278.47-.603.133-1.15.457-1.69.814-.4.264-.412.27-.258.765.28.903.43 1.847.503 2.828.066.9.174 1.79.278 2.827zM32.74 77.45c.195-.06.387-.126.582-.186.777-.245 1.554-.484 2.336-.724.048-.017.11-.036.146-.012.494.288 1.004-.022 1.494-.096 1.19-.184 2.382-.46 3.572-.724 1.092-.244 2.182-.518 3.272-.79.09-.025.175-.145.262-.22-.092-.093-.176-.203-.28-.273-.043-.03-.13.034-.196.04-1.032.102-2.064.21-3.1.287-.143.01-.287-.128-.434-.197.072-.14.144-.276.21-.415.014-.03.01-.072.02-.13-.956.073-1.878.444-2.81.722-.162.048-.25.166-.294.396-.025.127-.174.31-.272.324-.395.064-.707.316-1.015.613-.123.118-.272.206-.42.25-.432.13-.865.232-1.3.338-.61.146-1.26.096-1.773.798zm-3.728-26.738c-.294.753-.556 1.523-.376 2.39.048.243-.038.478-.267.576-.31.134-.624.27-.934.412-.197.092-.457.072-.536.4.375.34.748.634 1.075.99.243.26.438.588.212 1.077-.075.163-.128.418-.085.573.085.307.195.68.39.827.236.173.358-.222.488-.455.193-.345.392-.69.614-1.007.08-.117.24-.21.36-.21.397 0 .794.045 1.215.076-.006-.052.014-.205-.034-.282-.128-.19-.272-.377-.438-.506-.157-.122-.246-.278-.135-.47.202-.357.35-.78.7-.992.25-.15.48-.386.702-.61.07-.07.138-.237.12-.33-.014-.087-.134-.175-.223-.187-.315-.05-.635-.07-.965-.098-.004.107.005.18-.014.24-.026.095-.075.186-.113.277-.063-.055-.14-.093-.188-.167-.05-.08-.08-.185-.106-.288-.18-.76-.627-1.247-1.05-1.762-.133-.163-.275-.314-.414-.473zm-17.735 21.53l-.154-.022c-.138.434-.3.86-.41 1.304-.444 1.755-1.03 3.42-1.99 4.838-.386.57-.53 1.172-.458 1.88.014.124-.017.31-.084.398-.45.592-.27 1.313-.216 1.918.053.58.402 1.102.647 1.716.052-.158.09-.247.112-.34.106-.398.207-.8.315-1.194.238-.882.76-1.626.876-2.57.017-.168.043-.353.115-.485.4-.716.75-1.464 1.07-2.24.142-.35.243-.648.21-1.013-.056-.563-.147-1.124-.173-1.69-.02-.458.03-.925.057-1.388.022-.372.056-.743.085-1.113zm43.547 43.717c.03-.18.048-.24.048-.294-.002-.08-.03-.156-.024-.235.06-1.413.05-2.816-.32-4.142-.014-.057-.02-.117-.022-.175-.03-.525-.194-.94-.59-1.182-.19-.116-.278-.29-.143-.583.038-.087.046-.245.005-.322-.222-.42-.407-.9-.708-1.218-1.106-1.18-2.215-2.36-3.398-3.43-1.388-1.257-2.995-2.048-4.713-2.55-.265-.076-.523-.203-.792-.255-.368-.072-.743-.106-1.116-.14-.253-.02-.426-.138-.527-.43-.043-.135-.144-.267-.25-.325-.803-.453-1.595-.947-2.43-1.32-.954-.425-1.86-.962-2.766-1.49-.698-.405-1.367-.877-2.045-1.323-.044-.026-.082-.065-.118-.105-.488-.512-.984-1.018-1.46-1.548-.525-.577-.907-1.27-1.087-2.15-.087-.41-.212-.782-.162-1.244.048-.432-.02-.875-.038-1.336-.18.075-.35.12-.498.216-.188.117-.48 0-.553.357-.057.276-.083.57-.08.85.002.224.064.442.11.656.04.195.1.382.14.574.19.877.372 1.738.87 2.448.71 1.014 1.49 1.858 2.588 2.176.188.056.364.178.527.295.378.274.717.62 1.114.83.668.355 1.368.618 2.048.928.212.097.417.212.616.334.34.208.657.5 1.02.642 1.042.422 2.088.837 3.086 1.38.205.112.41.234.602.37.687.487 1.366.988 2.054 1.473 1.24.87 2.547 1.605 3.654 2.73 1.092 1.114 2.172 2.23 3.038 3.612.223.367.425.758.623 1.146.268.523.5 1.067.778 1.58.257.487.452 1 .56 1.575.096.508.22 1.007.356 1.626zM6.776 76.07c.21-.525.445-.976.575-1.467.518-1.964 1.372-3.757 2.002-5.677.034-.1.092-.185.133-.28.165-.4.34-.8.493-1.21.09-.256.12-.543.21-.797.26-.71.54-1.41.814-2.114.11-.275.217-.55.313-.83.467-1.354.998-2.66 1.857-3.71.15-.18.15-.343.118-.58-.123-.98-.42-1.86-.77-2.722-.183-.45-.37-.467-.563.005-.642 1.562-1.554 2.88-2.403 4.24-.48.772-.86 1.592-1.104 2.513-.043.168-.098.328-.156.486-.335.867-.67 1.73-1 2.594-.212.55-.403 1.112-.64 1.64-.18.395-.272.79-.284 1.232-.008.256-.034.513-.065.767-.174 1.287-.41 2.563-.02 3.836.176.584.255 1.217.385 1.826.015.07.056.13.106.244zm26.767 25.34l-.045.06c.096.135.182.286.293.4.234.23.497.418.718.663.57.643 1.234 1.108 1.93 1.522.093.058.177.16.237.264.027.04.005.165-.03.215-.032.048-.124.08-.17.062-.377-.16-.78-.278-1.118-.513-.498-.345-.957-.777-1.43-1.175-.25-.21-.523-.39-.744-.643-.77-.873-1.566-1.72-2.274-2.683-.183-.25-.45-.453-.535-.748-.127-.465-.437-.68-.72-.865-.415-.273-.667-.687-.857-1.17-.433-1.102-1-2.123-1.307-3.315-.015-.072-.068-.132-.114-.187-.224-.276-.236-.566-.08-.942.215-.513.145-.638-.327-.523-1.054.264-2.103.578-3.152.87-.15.04-.238.137-.255.34-.057.806-.105 1.607.164 2.36.084.237.15.487.216.736.24.968.546 1.886 1.052 2.682.425.67.834 1.352 1.274 2.002.086.13.283.2.43.196.226-.01.375.075.503.28.065.11.163.185.25.274 1.005 1.064 2.213 1.738 3.387 2.462.813.5 1.676.887 2.525 1.292.75.358 1.516.66 2.27 1 1.278.58 2.604 1.026 3.833 1.74.1.058.216.073.317.123.344.17.684.34 1.02.52.188.1.37.217.56.313.554.29 1.153.484 1.586 1.028.06.076.157.12.244.162.22.1.46.168.673.292.388.223.734.573 1.143.708.678.218 1.265.62 1.867 1.002.28.182.553.374.837.544.666.403 1.337.794 2 1.2.31.186.614.38.826.742.115.2.31.32.447.506.325.434.717.83.93 1.342.396.952.687 1.974 1.016 2.96.046.136.092.267.162.464.27-.456.5-.842.764-1.29-.133.03-.195.05-.256.055-.173.007-.372.15-.495-.072-.13-.232-.006-.436.095-.66.065-.148.106-.35.084-.505-.066-.475-.085-.983-.494-1.246-.098-.063-.15-.238-.21-.37-.098-.22-.187-.446-.273-.67-.082-.21-.222-.255-.402-.193-.064.023-.13.102-.184.09-.125-.03-.296-.053-.354-.16-.082-.15-.033-.35.164-.418.22-.07.178-.278.16-.436-.016-.127-.083-.252-.155-.35-.408-.58-.78-1.213-1.245-1.717-.753-.81-1.57-1.528-2.36-2.288-.123-.117-.23-.153-.38.03-.132.157-.303.155-.455.028-.166-.144-.346-.266-.505-.425-.163-.165-.38-.326-.19-.683.017-.038.005-.12-.014-.163-.112-.23-.548-.35-.78-.195-.177.122-.352.175-.51.05-.162-.122-.347-.254-.43-.446-.15-.348-.406-.473-.678-.598-.36-.163-.733-.297-1.084-.49-.905-.49-1.804-1.003-2.702-1.52-1.056-.608-2.114-1.226-3.17-1.847-.505-.295-.984-.68-1.518-.882-.616-.233-1.152-.6-1.69-.986-.097-.07-.19-.136-.285-.206zm6.52-70.747c.025.033.047.064.07.098.502-.35 1.004-.704 1.502-1.06.765-.555 1.564-.982 2.398-1.255.556-.182.578-.165.633.53.142 1.918.308 3.826.07 5.782-.09.74.045.847.6.593.658-.3 1.32-.59 1.978-.885l.965-.432c.218-.098.33-.232.244-.563-.168-.647-.284-1.326-.466-1.968-.39-1.36-.65-2.78-.79-4.24-.062-.63-.093-1.126-.64-1.274-.098-.03-.187-.312-.184-.485.002-.108.175-.266.29-.335.677-.413 1.39-.588 2.108-.796 1.17-.338 2.323-.285 3.485-.417.137-.015.286.026.404.098.206.12.316.348.242.664-.065.28-.16.523-.44.537-.368.024-.74.09-1.112.127-.382.04-.41.075-.336.53.12.727.238 1.45.37 2.17.207 1.13.42 2.257.64 3.376.026.142.07.324.154.39.168.123.163.272.135.502-.075.573.01.645.435.513.414-.126.832-.236 1.253-.335.2-.045.39-.014.458.286.067.3-.022.593-.248.775-.045.036-.103.046-.146.086-.315.304-.683.212-1.018.356-.808.343-1.676.453-2.372 1.237-.39.017-.34.31-.305.655.114 1.033.227 2.07.3 3.107.08 1.15.182 2.3.1 3.47-.004.07.044.138.073.23.493-.59.94-1.142 1.227-1.902.202-.53.53-.99.817-1.467.688-1.144 1.19-2.53 2.348-3.083.046-.024.084-.09.12-.142.635-.847 1.42-1.497 1.968-2.47.04-.075.1-.137.15-.207.302-.43.646-.832.896-1.304.26-.488.483-1.027.632-1.578.423-1.57.435-3.098-.15-4.508-.156-.376-.39-.652-.714-.793-.288-.12-.58-.256-.856-.414-.31-.175-.6-.415-.92-.573-.63-.312-1.293-.56-1.79-1.18-.23-.287-.48-.57-.648-.918-.303-.613-.202-1.2.236-1.87.058-.086.09-.203.118-.31.154-.567.3-1.133.454-1.704-.026-.003-.077-.015-.132-.015-1.595.05-3.15.503-4.654 1.37-.667.385-1.335.76-1.992 1.176-.702.444-1.422.866-2.078 1.413-.876.726-1.72 1.54-2.468 2.496-.38.478-.782.926-1.013 1.58-.16.444-.358.88-.584 1.272-.53.906-1.09 1.778-1.628 2.668-.075.122-.127.268-.188.403zM51.6 85.188c-1.337.376-2.655.565-3.973.767-.15.024-.296.086-.445.136-.61.2-1.213.438-1.828.594-1.547.395-3.106.527-4.66.75-.7.098-1.395.326-2.088.532-.69.206-1.37.51-2.063.67-.668.155-1.315.35-1.953.673-.41.21-.825.4-1.11.876-.1.173-.352.206-.292.528.046.227 0 .51.09.702.43.96.875 1.913 1.348 2.834.32.616.823 1 1.33 1.354.143.096.337.12.51.113.28-.014.472.09.597.393.05.13.118.28.217.343.748.468 1.496.93 2.256 1.36.38.213.784.38 1.193.505.423.127.875.137 1.3.27 1.274.392 2.54.814 3.804 1.243.207.07.313 0 .41-.21.17-.386.367-.762.516-1.16.363-.993.703-2.002 1.06-3 .35-.96.71-1.917 1.062-2.88.707-1.933 1.412-3.875 2.124-5.822.19-.52.392-1.036.596-1.57zm-12.224 68.175c.147-.148.29-.25.385-.395.304-.472.603-.952.882-1.448.094-.166.158-.39.158-.583 0-.558-.012-1.117-.072-1.664-.062-.563-.216-1.105-.284-1.673-.15-1.25-.288-2.5-.77-3.63-.194-.458-.346-.944-.54-1.4-.6-1.414-1.297-2.757-2.108-4.013-.793-1.225-1.76-2.2-2.905-2.963-.58-.386-1.228-.65-1.722-1.204-.067-.074-.166-.103-.25-.156-.55-.347-1.1-.707-1.655-1.05-.748-.467-1.503-.928-2.258-1.383-.154-.093-.318-.18-.49-.208-1.19-.18-2.27-.69-3.292-1.38-.163-.11-.356-.176-.5-.312-.582-.542-1.152-1.1-1.72-1.664-.23-.228-.435-.49-.67-.71-.667-.63-1.37-1.21-2.01-1.88-.608-.635-1.183-1.318-1.717-2.047-.54-.742-1.037-1.54-1.508-2.355-.467-.798-.876-1.65-1.31-2.477-.434-.822-.725-1.723-.963-2.66-.188-.744-.378-1.492-.565-2.238-.3-1.18-.602-2.36-.89-3.548-.16-.645-.313-1.294-.433-1.95-.123-.68-.24-1.368-.29-2.063-.074-.977-.105-1.962-.12-2.947-.01-.787.05-1.58.044-2.372-.004-.567-.07-1.13-.107-1.694-.01-.11-.036-.218-.056-.326-.103.058-.22.09-.303.178-.178.204-.118.455.032.582.387.33.202.734.103 1.134-.073.29-.203.585-.205.873-.013 1.184.007 2.37.033 3.548.02.878.22 1.73.123 2.623-.016.175.023.357.032.535.053.858.125 1.71.147 2.567.04 1.585-.078 3.187.232 4.728.012.058-.002.12.005.177.024.293.02.595.084.87.155.658.34 1.3.51 1.947.023.09.044.197.025.283-.08.377.08.648.22.926.098.197.23.372.32.576.6 1.388 1.38 2.613 2.212 3.793.262.375.527.788.666 1.24.11.346.253.603.48.814.386.352.764.72 1.16 1.052.917.77 1.838 1.518 2.757 2.275.183.15.368.296.544.454.888.8 1.835 1.5 2.785 2.19.72.524 1.452 1.025 2.19 1.514 1.025.68 2.053 1.36 3.09 2.005.83.513 1.657 1.054 2.535 1.43.536.226.885.636 1.16 1.123.415.73.976 1.28 1.46 1.92.63.83 1.315 1.597 1.78 2.58.083.175.11.403.22.542.453.573.652 1.318.92 2.01.247.65.4 1.356.656 1.998.41 1.026.754 2.08.937 3.206.15.944.46 1.802.827 2.7zm4.89-9.74c.084-.156.118-.228.157-.29.638-.995 1.004-2.146 1.46-3.25.027-.066.044-.143.058-.217.04-.202.012-.34-.2-.32-.336.025-.466-.23-.516-.572-.022-.15-.046-.295-.06-.446-.128-1.218-.323-2.397-.732-3.53-.35-.977-.71-1.926-1.236-2.79-.563-.91-1.032-1.905-1.69-2.735-.39-.5-.682-1.11-1.182-1.5-.296-.233-.527-.576-.8-.85-.434-.426-.843-.906-1.324-1.25-.698-.5-1.463-.87-2.17-1.358-.447-.31-.916-.56-1.397-.78-1.04-.467-2.094-.89-3.12-1.402-.964-.484-1.897-1.057-2.84-1.603-.486-.283-.996-.533-1.434-.9-1.027-.855-2.02-1.774-3.026-2.673-.19-.167-.372-.35-.55-.544-.484-.527-.943-1.09-1.44-1.6-.82-.828-1.572-1.747-2.277-2.72-.654-.906-1.198-1.923-1.652-3.01-.423-1.01-.834-2.032-1.248-3.056-.127-.316-.27-.63-.358-.968-.18-.68-.34-1.368-.488-2.058-.23-1.067-.474-2.13-.66-3.215-.098-.583-.168-1.218-.093-1.808.1-.794.125-1.57.09-2.396-.105.034-.208.043-.29.096-.637.43-1.268.875-1.907 1.295-.25.165-.323.38-.284.71.072.54.11 1.085.175 1.625.092.733.18 1.467.3 2.19.07.41.186.81.31 1.197.32 1.012.328 2.117.55 3.148.214.995.486 1.97.755 2.937.152.54.36 1.05.522 1.585.248.808.426 1.654.722 2.428.67 1.753 1.45 3.424 2.46 4.908.313.458.628.913.953 1.362.545.745 1.072 1.51 1.644 2.22.698.858 1.465 1.618 2.365 2.174.547.34 1.06.76 1.62 1.07.67.375 1.373.68 2.064 1.005.81.384 1.62.763 2.434 1.137.118.055.243.103.368.11.647.034 1.19.393 1.756.67.856.426 1.69.92 2.526 1.397.78.442 1.568.867 2.31 1.375.458.31.836.765 1.252 1.15.306.286.63.545.92.854.32.347.608.74.915 1.104.306.365.645.69.92 1.086.834 1.206 1.406 2.606 1.91 4.05.55 1.567 1.007 3.176 1.46 4.953zM26.98 169.51l.098.098c.062-.05.125-.093.18-.148.224-.214.428-.458.666-.64.532-.41 1.083-.777 1.617-1.182.405-.305.814-.61 1.18-.97.577-.562 1.13-1.164 1.683-1.766.508-.554.972-1.153 1.297-1.88.594-1.327 1.186-2.66 1.782-3.99.137-.306.296-.59-.03-.857-.088-.074-.097-.295-.12-.453-.15-.93-.292-1.86-.434-2.795-.046-.307-.1-.61-.12-.92-.1-1.418-.38-2.784-.66-4.156-.072-.354-.173-.7-.288-1.04-.094-.265-.243-.503-.342-.766-.24-.655-.443-1.33-.707-1.97-.22-.543-.49-1.06-.766-1.567-.508-.92-1.068-1.788-1.696-2.608-.717-.936-1.393-1.912-2.165-2.794-.866-.985-1.76-1.92-2.757-2.72-.31-.253-.606-.53-.935-.744-1.04-.684-2.104-1.33-3.146-2.024-.683-.45-1.323-.992-2.013-1.43-.887-.567-1.726-1.207-2.534-1.92-.84-.742-1.65-1.512-2.38-2.408-.473-.583-.942-1.173-1.4-1.777-.372-.494-.673-1.086-1.096-1.503-.65-.64-1.157-1.415-1.624-2.23-.476-.837-.892-1.724-1.202-2.692-.566-1.774-1.167-3.54-1.65-5.366-.123-.47-.268-.932-.354-1.412-.298-1.642-.743-3.248-.84-4.955-.05-.914-.05-1.84-.026-2.77.012-.66.12-1.323.298-1.968.068-.258-.043-.37-.224-.26-.432.27-.856.56-1.277.85-.054.04-.124.108-.136.175-.09.533-.387.978-.47 1.496-.124.753-.19 1.518-.24 2.278-.055.923-.12 1.853-.086 2.77.038 1.07.178 2.13.27 3.195.043.492.038.996.115 1.477.183 1.156.387 2.304.613 3.443.1.51.238 1.017.41 1.494.32.868.673 1.71 1.017 2.558.546 1.345 1.048 2.716 1.772 3.934.7 1.18 1.352 2.398 2.035 3.587.24.417.5.83.797 1.194.435.537.9 1.047 1.375 1.536.785.806 1.57 1.616 2.39 2.362.547.496 1.175.863 1.743 1.328.455.374.938.645 1.455.882.31.144.84.084.87.736.003.028.044.054.07.07.56.44 1.114.893 1.684 1.31.81.587 1.643 1.136 2.452 1.724.873.637 1.756 1.258 2.585 1.963.983.837 1.866 1.81 2.69 2.848.573.72 1.06 1.52 1.45 2.388.485 1.096.89 2.246 1.346 3.356.334.81.428 1.702.567 2.58.1.606.18 1.22.246 1.833.064.62.078 1.237-.07 1.868-.143.595-.287 1.197-.34 1.796-.12 1.386-.75 2.522-1.376 3.654-.45.818-.974 1.575-1.458 2.366-.154.257-.288.533-.423.806-.457.91-.907 1.82-1.362 2.728zM4.107 98.148c.026.02.055.038.087.055.11-.108.233-.206.34-.323 1.014-1.132 2.072-2.2 3.224-3.12.78-.623 1.57-1.227 2.382-1.786.874-.6 1.77-1.153 2.666-1.697.712-.43 1.364-1.03 2.153-1.26.305-.09.6-.282.884-.466.498-.323.963-.752 1.48-1.004.85-.41 1.722-.812 2.61-1.045 1.816-.47 3.617-1.06 5.457-1.4 1.25-.23 2.49-.608 3.737-.886 1.328-.295 2.658-.544 3.988-.825 1.253-.262 2.502-.54 3.753-.81.7-.152 1.407-.255 2.092-.478 1.5-.484 3.012-.638 4.525-.86 1.244-.178 2.487-.387 3.72-.754.83-.244 1.666-.467 2.5-.683 1.172-.3 2.343-.58 3.515-.873.156-.038.356-.112.384.113.02.163-.08.403-.18.55-.075.114-.236.153-.366.2-.127.048-.26.068-.394.1.12.598.118.593-.29.85-.302.19-.747.25-.57.9.004.023-.025.083-.05.11-.14.148-.052.25.015.364.07.11.127.23.194.344.15.24.28.218.414-.065.56-1.195 1.133-2.382 1.68-3.59.465-1.02.922-2.052 1.35-3.1.465-1.153.895-2.328 1.336-3.5.173-.456.32-.925.5-1.376.428-1.062.885-2.112 1.304-3.184.52-1.338 1-2.697 1.517-4.042.64-1.666 1.32-3.32 1.95-5 .26-.706.43-1.456.646-2.197-.413-.064-.76-.124-1.11-.172-.996-.136-1.992-.283-2.99-.393-.186-.022-.438.04-.583.192-.33.352-.702.582-1.084.693-.87.247-1.742.426-2.61.618-1.49.326-2.98.62-4.467.97-1.04.24-2.074.565-3.115.828-1.577.4-3.16.77-4.706 1.417-1.38.573-2.76 1.117-4.135 1.678-.165.07-.324.155-.482.232.404-.003.772-.094 1.142-.18.78-.182 1.56-.312 2.333-.59.8-.288 1.626-.427 2.442-.623.135-.032.274-.035.41-.028 1.194.06 2.395-.172 3.585-.376 1.68-.285 3.356-.492 5.035-.61 1.178-.078 2.355-.093 3.533-.217.823-.088 1.643-.054 2.46-.044.477.004.95.05 1.418.112.255.034.527.39.49.607-.06.324-.27.44-.502.523-.306.11-.337.165-.157.45.195.307.22.496-.11.748-.178.137-.154.355.055.473.1.054.185.164.243.28.18.35.15.46-.18.606-.265.115-.54.2-.8.33-.095.046-.2.168-.247.283-.115.3-.3.428-.536.47-.296.052-.592.107-.888.162.4.13.8.17 1.198.233.248.04.387.26.378.55-.007.263-.195.533-.443.586-.185.04-.373.025-.56.032-.99.043-1.975.046-2.964.137-1.895.17-3.788.404-5.68.584-.56.053-1.122-.04-1.68.03-.88.11-1.756.31-2.64.452-.66.105-1.322.196-1.986.264-.678.07-1.356.074-2.037.158-1.34.165-2.68.364-4.017.554-.323.045-.65.15-.97.15-1.407-.007-2.775.46-4.144.866-.954.28-1.882.727-2.82 1.09-.87.334-1.744.66-2.615.986-.712.266-1.448.415-2.114.887-.117.085-.264.176-.384.162-.37-.048-.657.213-.955.417-.71.48-1.406.996-2.12 1.464-.756.496-1.564.846-2.267 1.486-.192.175-.413.326-.637.42-.705.29-1.3.856-1.948 1.278-.147.096-.263.278-.385.43-.53.64-1.054 1.286-1.59 1.92-.42.498-.864.968-1.28 1.47-.192.23-.34.512-.512.768l.06.108c.25-.144.51-.275.756-.434.642-.407 1.275-.836 1.915-1.24.335-.215.7-.352 1.014-.598 1.517-1.2 3.117-2.175 4.798-2.916.902-.4 1.826-.73 2.74-1.083.75-.29 1.506-.585 2.26-.854.675-.238 1.353-.437 2.027-.667.393-.135.778-.33 1.175-.444 1-.286 2.006-.538 3.01-.806.15-.04.3-.084.45-.123 1.072-.26 2.144-.505 3.217-.79 1.19-.316 2.374-.685 3.567-1.004.637-.17 1.28-.278 1.92-.41.98-.2 1.96-.41 2.94-.59.932-.173 1.867-.32 2.8-.468.29-.043.585-.11.867-.083 1.164.103 2.34-.09 3.512-.156.725-.04 1.45.037 2.178-.018 1.116-.086 2.186.14 3.278.254.068.005.164.082.178.153.015.074-.04.208-.096.27-.09.103-.2.202-.31.245-.274.105-.556.18-.832.266.007.596-.068.878-.376 1.52-.036.075-.03.214.003.29.12.29-.007.442-.21.545-.144.075-.29.144-.442.173-.336.067-.677.1-1.017.16-.132.025-.327.025-.384.125-.27.484-.663.484-1.02.518-1.103.107-2.202.17-3.302.246-.993.067-1.986.093-2.973.388-.23.07-.452.22-.683.27-1.87.375-3.743.735-5.612 1.104-.185.036-.37.09-.555.136.916-.014 1.825-.12 2.737-.203.318-.028.635.032.953 0 .488-.047.976-.138 1.465-.21 1.313-.197 2.63-.39 3.944-.588 1.148-.175 2.298-.386 3.447-.53.93-.117 1.86-.007 2.787-.328.187-.062.433-.177.51.137.012.053-.27.303-.433.377-.654.297-1.314.446-2.002.503-1.35.116-2.706.36-4.057.557-.573.08-1.145.177-1.72.27-1.097.18-2.192.39-3.288.538-.91.122-1.82.17-2.73.263-.284.03-.57.137-.855.147-1.23.05-2.458.04-3.682.44-.628.207-1.28.264-1.903.475-1.04.35-2.064.78-3.096 1.154-.9.33-1.805.625-2.707.947-.95.34-1.896.69-2.84 1.048-.634.238-1.26.528-1.896.73-.674.21-1.367.3-2.033.53-.637.215-1.26.512-1.874.82-.536.272-1.044.63-1.573.912-.53.286-1.094.468-1.604.79-1.095.69-2.27 1.13-3.303 1.98-.568.464-1.17.86-1.74 1.315-.915.73-1.815 1.484-2.722 2.22-.765.624-1.53 1.242-2.302 1.847-.16.13-.358.184-.534.29-.08.05-.173.127-.21.218-.425 1.083-.853 2.165-1.252 3.258-.104.285-.113.618-.164.93zm19.8-48.284c-.085.005-.18.033-.258.007-.1-.035-.19-.114-.284-.176.065-.096.113-.223.19-.28 1.376-1.03 2.754-2.048 4.135-3.075.107-.08.208-.176.31-.262.1-.084.2-.163.3-.244-.448.175-.86.438-1.268.697-1.196.76-2.49 1.267-3.507 2.48-.067.08-.32.034-.404-.07-.136-.16.018-.3.135-.412.17-.163.32-.38.506-.5.69-.454 1.39-.89 2.088-1.312.638-.386 1.302-.705 1.85-1.32.135-.145.294-.262.452-.363.94-.59 1.877-1.18 2.822-1.75.577-.35 1.176-.63 1.746-.998 1.646-1.057 3.276-2.15 4.927-3.215.204-.13.255-.268.223-.53-.057-.436-.09-.88-.134-1.32-.017-.154-.027-.32-.07-.456-.282-.87-.207-1.738.08-2.64.088-.275.093-.628.047-.913-.04-.277 0-.464.13-.692.336-.594.65-1.208.98-1.81.03-.053.096-.067.147-.1-.014.19.036.304.135.083.08-.178.478-.447.014-.63-.012-.01-.007-.176.024-.246.082-.18.185-.345.28-.52.6-1.13 1.327-2.132 2.012-3.177.25-.376.525-.724.782-1.096.21-.305.412-.624.67-1.015-.25.04-.405.058-.56.09-.27.056-.47.274-.51.627-.03.283-.042.532-.25.738-.168.173-.283.44-.444.636-.385.47-.792.91-1.17 1.39-.18.23-.377.496-.454.79-.11.397-.296.684-.512.972-.1.132-.16.31-.236.47-.055.12-.094.264-.17.355-.056.065-.164.08-.24.067-.033-.007-.073-.156-.057-.223.064-.266.107-.568.237-.77.306-.47.51-.97.674-1.546.11-.385.43-.682.653-1.027.276-.434.613-.842.796-1.333.126-.346.242-.662.446-.943.238-.328.53-.637.678-1.028.306-.797.842-1.164 1.386-1.545.214-.15.45-.22.637.024.056.076.022.323.188.16.123-.12.32-.22.204-.494-.1-.233-.013-.34.146-.5.606-.605 1.314-.915 1.973-1.368.97-.666 2.022-.85 3.044-1.23.382-.144.83-.033 1.07-.65.005-.014.03-.02.048-.028.53-.31 1.054-.648 1.595-.916.37-.182.765-.26 1.148-.4.66-.238 1.323-.494 1.986-.73.175-.062.403-.117.458.16.075.344-.19.42-.365.512-.262.13-.534.218-.8.324.376-.007.744-.082 1.105-.21.142-.05.347-.183.388-.334.15-.504.445-.506.714-.463.416.065.84.148 1.222.338 1.12.56 2.095 1.415 2.922 2.516 1.13 1.503 2.158 3.116 2.952 4.967.034.075.022.187.03.28.29-.802.37-1.43-.083-1.896-.05-.05-.067-.153-.113-.22-.462-.7-.885-1.453-1.4-2.086-.77-.953-1.604-1.823-2.413-2.734-.074-.082-.16-.18-.182-.298-.022-.115.016-.278.07-.388.02-.04.165-.034.23.01.197.13.39.275.568.44.433.396.854.81 1.277 1.214.082.08.17.15.238.25.45.632.92 1.24 1.335 1.91.448.72.854 1.48 1.256 2.244.088.168.17.458.112.618-.106.28-.048.487-.014.73.122.953.293 1.898.344 2.866.09 1.91-.008 3.84-.354 5.75-.34 1.89-.765 3.76-1.147 5.63-.038.18-.064.368-.093.553.243-.235.442-.545.66-.6.223-.055.266-.17.31-.374.17-.82.324-1.65.52-2.47.25-1.053.398-2.11.427-3.19.012-.45.094-.91.17-1.363.114-.69.14-1.345-.004-2.024-.166-.765-.217-1.587-.296-2.39-.012-.122.082-.278.125-.417.11.08.23.14.326.244.046.046.04.166.056.255.12.79.204 1.6.375 2.363.168.748.065 1.484-.056 2.237-.056.36-.107.722-.143 1.084-.06.59-.065 1.188-.163 1.773-.17.992-.397 1.973-.585 2.958-.064.335-.076.677-.114 1.015-.024.204-.048.408-.09.605-.03.146-.07.345-.15.414-.174.147-.424.36-.566.3-.28-.115-.31.1-.35.307-.148.814-.282 1.626-.422 2.437.19-.42.27-.866.395-1.295.105-.36.262-.705.413-1.045.032-.065.173-.12.23-.09.044.028.076.193.054.28-.22.925-.445 1.845-.69 2.76-.06.234-.173.47-.3.66-.114.168-.278.377-.422.396-.315.046-.464.28-.6.602-.186.448-.37.9-.586 1.328-.216.424-.445.85-.72 1.213-.41.556-.865 1.06-1.305 1.585-.077.097-.15.226-.243.272-.435.21-.74.647-1.073 1.033-.097.115-.203.352-.336.173-.053-.072.02-.32.065-.473.028-.098.112-.177.177-.26.2-.274.563-.423.46-.936-.015-.063.103-.186.16-.282-.208.09-.372.23-.49.42-.288.465-.49 1.014-.897 1.367-.15.13-.14.31.03.407.2.113.184.252.023.444-.476.565-.948 1.136-1.424 1.7-.107.124-.22.25-.347.323-.47.268-.948.507-1.42.773-.664.372-1.32.763-1.99 1.125-.107.06-.25.014-.377.02.012-.142.02-.284.037-.425.007-.067.033-.132.072-.288-1.14.39-2.204.746-3.264 1.122-1.135.4-2.273.734-3.432.813-.582.04-1.162.098-1.746.148.12.132.255.173.37.252.063.04.1.14.15.216-.078.077-.152.208-.232.213-.202.016-.41.006-.606-.046-.447-.115-.875-.346-1.328-.38-.68-.052-1.3-.265-1.885-.65-.565-.368-1.16-.682-1.678-1.133-.494-.428-.93-.483-1.513-.148-.735.425-1.514.715-2.267 1.08-.137.064-.294.184-.368.335-.214.424-.388.61-.67.46-.278-.15-.49-.038-.728.118-.262.172-.53.33-.844.53l.267.37-.007-.01c.055.268.105.54.166.805.133.628-.232 1.206-.75 1.148-.182-.02-.363-.1-.533-.187-.438-.212-.876-.43-1.3-.677-.26-.15-.4-.046-.52.266-.336.835-.752 1.603-1.26 2.296-.264.36-.468.376-.622-.044-.056-.146-.073-.323-.085-.49-.016-.277-.016-.555-.02-.744-.244.03-.43.055-.615.08.008-.21.008-.418.027-.627.01-.104.072-.203.09-.31.052-.27.095-.542.153-.892l-.262.12c-.583.25-1.064.805-1.715.882-.313.036-.546.076-.787-.192-.237-.264-.26-.242-.045-.578.166-.264.35-.508.527-.76-.325.16-.596.4-.885.6-.108.07-.253.05-.38.07.03-.154.02-.344.096-.452.118-.182.24-.29.075-.537-.1-.155-.017-.322.168-.368.16-.038.277-.103.267-.388-.002-.113.164-.266.274-.367.096-.09.226-.12.33-.202.05-.038.074-.136.108-.208-.065-.048-.135-.146-.195-.134-.15.036-.296.13-.447.18-.166.057-.335.1-.503.124-.05.005-.113-.062-.144-.12-.017-.03.02-.14.057-.165.164-.118.335-.218.508-.326.138-.09.306-.134.1-.393-.104-.135-.02-.33.166-.374.086-.023.17-.052.257-.078-.075-.082-.135-.065-.2-.048-.353.105-.707.218-1.063.304-.058.012-.142-.088-.18-.165-.015-.03.048-.156.098-.204.068-.068.15-.12.234-.15.745-.25 1.42-.723 2.11-1.167.58-.374 1.178-.726 1.79-.97.273-.11.38-.253.44-.552.016-.064.028-.13.03-.196.022-.448.294-.714.5-1.012.193-.273.376-.04.55.075.037.02.105-.008.148-.036.183-.124.296.003.407.145.14.182.317.335.418.55.13.284.29.284.515.217.515-.147 1.01-.338 1.49-.662.31-.21.648-.48.966-.48.286-.002.486-.088.712-.28.238-.206.416-.093.462.254.026.185.024.448.118.535.32.29.368.548.144 1.044-.154.34-.296.585-.57.736-.272.15-.534.326-.818.504.2.153.42.232.517.42.1.188.08.483.107.704.452.098.957.043 1.128.78.036.155.125.32.31.193.35-.243.696-.505 1.056-.725.25-.15.51-.254.774-.353.12-.047.247-.033.372-.047-.057-.14-.098-.303-.18-.413-.217-.297-.462-.558-.678-.856-.147-.2-.29-.42-.397-.657-.3-.67-.598-1.343-.872-2.03-.068-.174-.12-.462-.05-.596.076-.153.297-.196.483-.302-.03-.362-.07-.8-.113-1.347-.19.28-.298.46-.425.62-.14.178-.323.125-.347-.112-.014-.137.03-.3.073-.44.06-.21.187-.41.21-.62.057-.594.278-1.184.107-1.795-.046-.166.012-.4.048-.595.053-.26.096-.535.378-.585.078-.012.193-.14.212-.24.07-.295.1-.6.166-1.026-.553.422-1.017.782-1.484 1.14-.423.32-.808.77-1.337.757-.094-.004-.21.07-.286.154-.603.657-1.27 1.17-1.972 1.616-.7.44-1.385.92-2.068 1.4-.513.362-1.025.73-1.516 1.14-.635.53-1.212 1.188-1.934 1.53-.11.054-.21.16-.31.253-.734.674-1.458 1.36-2.194 2.016-.36.32-.748.584-1.12.874-.198.15-.402.283-.588.45-.577.52-1.135 1.06-1.712 1.57-1.43 1.262-2.64 2.818-3.794 4.444-.27.38-.536.764-.793 1.16-.206.32-.31.67-.29 1.096.03.537.002 1.083-.014 1.628-.01.278-.013.568-.085.83-.18.682-.396 1.354-.6 2.025-.183.604-.373 1.203-.592 1.903.17-.143.282-.23.388-.328.252-.235.493-.487.755-.705.083-.072.208-.062.314-.09 0 .12 0 .236.002.4.337-.27.736-.4.902-1.01-.3-.043-.57-.065-.832-.12-.224-.045-.28-.256-.128-.465.19-.254.37-.568.604-.71.33-.2.48-.572.688-.882.147-.21.22-.47.127-.784-.11-.374-.072-.762.162-1.103.208-.306.278-.328.496-.086.1.11.193.233.3.338.107.11.222.113.278-.093.06-.23.21-.262.353-.338.3-.166.594-.36.886-.552.216-.14.42-.316.64-.448.913-.547 1.832-1.08 2.75-1.628.422-.256.84-.537 1.266-.79.165-.1.404-.28.505-.015.108.27-.186.312-.306.44-.234.24-.552.4-.407.903.074-.06.144-.137.223-.177.157-.08.344-.41.472-.067.1.277-.173.315-.306.437-.252.233-.575.355-.757.712.216-.1.408-.248.608-.367.067-.04.183-.036.233.014.053.048.094.213.068.268-.166.322-.19.782-.56.91-.08.028-.145.136-.217.208.317-.07.6-.235.887-.36.277-.12.558-.216.842-.285.075-.02.166.088.25.14-.05.12-.08.286-.158.358-.11.1-.26.118-.39.18-.52.257-1.04.5-1.547.78-.12.066-.2.253-.3.385.12-.02.246-.063.37-.06.088 0 .174.057.26.088-.028.098-.05.196-.086.29-.014.038-.043.07-.072.096-.568.48-1.152.913-1.797 1.172-.425.173-.858.314-1.287.465-.168.06-.192.188-.098.337.13.218.274.424.414.63.223.338.18.56-.154.712-.13.06-.27.074-.402.124-.195.08-.397.144-.577.26-.584.39-1.173.77-1.73 1.21-.38.3-.482-.24-.75-.266-.086-.01-.177-.16-.226-.27-.033-.08.005-.21.01-.318.005-.077.005-.156.01-.26-.412.368-.794.708-1.172 1.05-.32.29-.29.23-.666-.013-.16-.106-.267-.46-.546-.293-.512.307-.977.665-1.12 1.434-.02.125-.066.247-.104.37-.407 1.308-.633 2.646-.546 4.03.065 1.033.122 2.064.21 3.087.05.57.114 1.15.367 1.623.943-.91 1.85-1.788 2.76-2.668-.372.168-.69.44-1.02.693-.143.113-.287.458-.46.206-.15-.226.09-.432.22-.57.55-.558 1.095-1.124 1.677-1.622.7-.597 1.434-1.125 2.153-1.688.467-.372.914-.798 1.4-1.122 1.06-.7 2.134-1.343 3.2-2.02.293-.186.618-.34.858-.608.585-.637 1.273-.983 1.95-1.378.172-.1.333-.237.504-.345.434-.266.86-.57 1.312-.78.585-.275 1.176-.486 1.705-.954.443-.393.898-.805 1.386-1.08.89-.497 1.804-.936 2.725-1.327.888-.376 1.797-.66 2.7-.983.52-.184 1.045-.326 1.555-.55.773-.344 1.525-.783 2.302-1.113.907-.386 1.826-.756 2.757-1.03.664-.198 1.294-.507 1.932-.82.488-.243 1-.433 1.51-.524 1.114-.204 2.23-.3 3.344-.5.664-.118 1.323-.353 1.987-.536.51-.14 1.02-.32 1.532-.417.976-.187 1.955-.326 2.932-.49.223-.035.37-.14.29-.48-.024-.097.022-.226.034-.344.084.05.21.07.247.158.16.335.413.376.697.388.53.024 1.053.077 1.578.108.27.017.56.093.623-.458.01-.086.187-.206.295-.23.152-.04.308-.02.462.002.722.1 1.443.206 2.168.31.18.026.358.057.432.304-.473.49-.942.048-1.397.278.54.15 1.085.247 1.63.32.083.01.227-.07.263-.157.27-.664.53-1.338.78-2.016.087-.237.024-.377-.192-.372-.36.01-.727.036-1.083 0-.473-.045-.945-.134-1.414-.223-.06-.012-.126-.122-.143-.206-.007-.05.065-.163.118-.208.223-.187.46-.348.676-.547.04-.035.027-.205.01-.304-.005-.038-.098-.03-.13-.07-.053-.066-.09-.155-.132-.236.082-.065.164-.17.253-.187.133-.03.272.007.41.007.505.005 1.01.005 1.515.007.01-.04.02-.08.026-.12l-1.052-.42c.05-.18.113-.36.15-.548.095-.452.09-.457.44-.39.552.108 1.106.226 1.66.326.287.055.478-.09.622-.477.41-1.1.85-2.18 1.28-3.273.08-.2.158-.398.257-.638-.16-.054-.28-.073-.383-.126-.28-.146-.555-.292-.822-.467-.075-.05-.164-.25-.137-.295.057-.113.173-.214.28-.252.112-.043.24-.026.355-.005.216.043.435.094.647.168.262.094.433-.036.56-.35.286-.698.587-1.386.87-2.086.444-1.112.884-2.232 1.326-3.354l.373-.96c-.033-.02-.067-.042-.098-.063-.277.498-.558.997-.835 1.493l-.1-.076.23-.51c.11-.243.23-.48.332-.728.1-.248.04-.387-.17-.41-.24-.027-.482-.056-.718-.11-.067-.018-.166-.133-.16-.2.013-.112.08-.252.153-.323.084-.082.197-.118.3-.137.316-.055.63-.086.946-.146.113-.022.252-.053.33-.15.44-.555.435-1 .007-1.447-.027-.026-.063-.043-.085-.07-.226-.27-.19-.5.116-.736.055-.04.115-.06.255-.13-.32-.18-.682-.207-.523-.772.014-.048-.108-.14-.16-.22-.174-.246-.136-.428.124-.538.136-.058.282-.08.42-.074.454.01.91.014 1.356.072.267.036.443-.058.57-.384.176-.458.356-.916.55-1.407-.795-.298-1.493-.727-2.332-.676-.508.032-1.008-.078-1.506-.15-.103-.012-.19-.132-.284-.204.1-.115.202-.235.306-.345.024-.023.072-.028.103-.02.207.076.28-.066.373-.31.074-.21.233-.326.445-.21.215.114.463.133.78.217-.17-.204-.36-.336-.346-.444.02-.165.19-.316.332-.527-.166-.053-.306-.12-.455-.14-.43-.054-.862-.124-1.3-.12-.717.003-1.378-.385-2.122-.203-.146.04-.21-.1-.197-.297.035-.326.177-.43.412-.415.518.032 1.04.05 1.56.066.33.01.663.012.997.012.045 0 .13-.03.134-.06.1-.57.378-.288.587-.266.294.03.59.182.874.115.274-.065.54-.235.825-.17.04.01.184-.235.177-.247-.156-.252.21-.7-.132-.892-.034-.022-.015-.328.053-.427.057-.087.216-.097.322-.097.084.002.156.084.238.115.674.247 1.352.49 2.026.734.065.024.163.055.204.012.103-.113.202-.255.257-.408.02-.046-.09-.223-.163-.242-.54-.142-1.092-.242-1.63-.393-.196-.054-.386-.186-.535-.347-.072-.08-.09-.333-.048-.47.06-.206.206-.304.396-.218.673.31 1.354.6 2.035.892.075.03.21.072.234.03.125-.203.253-.423.322-.658.087-.294-.137-.29-.257-.39-.066-.055-.155-.19-.138-.235.043-.11.135-.215.22-.27.078-.05.18-.046.263-.04.234.018.373-.17.48-.41.348-.768.694-1.543 1.033-2.32.368-.84.715-1.697 1.095-2.534.676-1.487 1.376-2.964 2.064-4.455.245-.535.476-1.08.74-1.68-.27.037-.483.085-.695.092-.173.005-.35-.016-.52-.067-.14-.04-.288-.2-.168-.398.188-.31-.067-.455-.033-.705.063-.445-.26-.304-.425-.4-.195-.117-.233-.283-.135-.563.128-.357.337-.516.61-.55.254-.03.51-.064.76-.098-.37-.086-.727-.13-1.086-.2-.048-.006-.082-.114-.123-.176.064-.05.124-.098.182-.15.038-.04.072-.083.123-.142l-.16-.1c-.165-.083-.44-.04-.382-.414.048-.323.294-.227.453-.31.02-.01.03-.054.03-.056-.194-.09-.398-.156-.576-.28-.092-.063-.215-.26-.188-.34.096-.32-.027-.3-.19-.303-.87-.015-1.742-.034-2.612-.06-.64-.02-1.278-.082-1.92-.072-1.087.012-2.18.15-3.274.374-1.267.256-2.54.388-3.81.61-.623.11-1.246.308-1.87.454-.59.14-1.18.255-1.767.394-.696.16-1.39.338-2.086.504-1.314.32-2.632.633-3.948.947-1.084.26-2.167.51-3.252.79-.563.147-1.12.353-1.72.543l.08.314c.106.412.06.47-.26.455-.202-.01-.418.034-.618.116-.642.256-1.282.54-1.92.815-1.59.678-3.184 1.32-4.758 2.052-1.06.49-2.08 1.175-3.143 1.652-1.732.776-3.416 1.723-5.097 2.69-.097.057-.178.16-.267.242.39-.096.744-.274 1.097-.44.08-.04.224-.1.246-.06.192.354.368.72.53 1.097.025.053-.025.17-.04.252-.074-.026-.182-.02-.216-.083-.253-.483-.592-.368-.943-.172-.115.065-.22.168-.332.242-.67.434-1.332.864-1.996 1.297-.825.538-1.655 1.058-2.47 1.62-.734.507-1.442 1.085-2.18 1.583-.577.394-.613.475-.21 1.058.05.064.092.134.145.187.21.215.417.244.677.028.298-.25.62-.457.943-.647.625-.36.628-.347.914.413.022.058.072.1.09.16.064.198.148.18.288.078.295-.22.603-.426.914-.613.293-.178.59-.34.897-.478.173-.074.236.032.127.257-.03.067-.053.14-.125.328.486-.285.878-.517 1.27-.743.395-.23.79-.466 1.19-.662.114-.056.31-.048.374.043.148.2-.013.365-.138.51-.02.02-.015.073-.032.167.19-.07.36-.113.527-.2.214-.112.407-.086.484.188.092.328-.148.43-.32.55-.093.066-.2.097-.302.147-.5.264-1 .525-1.5.794-.56.302-1.122.61-1.68.916L33 29.167c.44.36.803.642 1.157.95.122.107.243.248.312.414.158.363.074.533-.246.6-.135.027-.296.03-.39.134-.79.875-1.724 1.338-2.662 1.784-.224.106-.503.192-.712.11-.27-.103-.383-.007-.503.28-.08.18-.193.337-.294.502-.192.316-.35.61-.235 1.055.098.383-.128.61-.42.475-.13-.06-.23-.202-.357-.24-.285-.087-.312-.33-.196-.614.137-.336.084-.607-.073-.952-.23.698-.75.68-1.146.95-.243.167-.48.206-.664-.08-.13-.203-.272-.13-.42-.028-.11.076-.23.14-.323.247-.17.19-.327.156-.48.024-.19-.168-.19-.41-.05-.688-.14.044-.254.126-.346.102-.533-.15-1.028.024-1.526.323-.113.067-.282.04-.404-.016-.238-.107-.248-.363-.024-.548.163-.14.346-.247.522-.36.86-.558 1.727-1.112 2.59-1.673.188-.123.37-.183.224-.596-.144-.386-.075-.856.313-1.112-.34-.393-.337-.484-.003-.82.084-.086.176-.165.267-.242.56-.465 1.123-.93 1.71-1.42-.056-.21-.118-.453-.178-.687-.075.02-.11.02-.142.04-.907.62-1.826 1.216-2.71 1.885-.432.323-.81.76-1.04 1.393-.23.63-.5 1.242-.81 1.813-.432.798-.898 1.568-1.38 2.318-.682 1.075-1.378 2.135-2.082 3.178-.708 1.04-1.436 2.055-2.15 3.08-.383.547-.77 1.09-1.136 1.65-.217.333-.385.71-.597 1.045-.245.394-.515.758-.767 1.142-.714 1.098-1.42 2.198-2.136 3.29-.455.69-.926 1.358-1.37 2.053-.105.163-.237.444-.196.585.16.537.12 1.185.48 1.62.095.11.14.294.196.452.72 2.13 1.443 4.243 1.867 6.506.02.114.088.208.136.31.065-.052.098-.07.12-.102.726-.995 1.455-1.995 2.186-2.992.097-.135.125-.235.036-.398-.113-.214-.04-.413.12-.573.25-.247.484-.528.75-.744.785-.64 1.58-1.26 2.378-1.876 1.23-.956 2.465-1.903 3.704-2.857l.847-.612c-.31.142-.676.166-.842.62zm17.81 74.65l.213.126c.364.376.713.786 1.105 1.122.392.335.626.887 1.09 1.122-.16-.302-.363-.556-.556-.818-.104-.14-.21-.283-.278-.45-.028-.07.008-.243.063-.295.06-.057.202-.076.26-.03.13.103.236.244.34.388.437.606.865 1.22 1.305 1.827.17.235.334.477.652.49.142.006.296.14.392.272.38.518.79 1.007.98 1.69.042.15.122.29.196.468.068-.108.12-.16.142-.23.284-.892.68-1.724 1.18-2.49.1-.16.194-.332.263-.512.034-.09.03-.223-.002-.312-.08-.238-.195-.46-.274-.7-.17-.51-.266-1.073-.494-1.533-.61-1.225-1.107-2.544-1.89-3.642-.896-1.263-1.752-2.572-2.635-3.86-.126-.182-.232-.35-.162-.625.033-.13.024-.278.012-.413-.027-.29-.053-.575.173-.81-.308-.185-.6-.305-.842-.508-.372-.318-.74-.658-1.062-1.044-.284-.333-.234-.69.094-1.125-.45-.22-.893-.418-1.32-.66-.205-.115-.37-.096-.586.017-.202.103-.457.134-.666.093-.35-.07-.693-.194-1.02-.35-.8-.386-1.587-.808-2.386-1.206-.132-.062-.277-.173-.45-.07.065.19.166.346.164.506-.005.317.14.396.344.463.34.106.678.24 1.017.367 1.18.44 2.32.995 3.458 1.56.19.097.376.212.554.34.433.322.87.634 1.284.986.284.24.536.528.79.816.05.06.07.232.035.31-.035.078-.172.157-.244.138-.265-.062-.54-.122-.772-.26-.63-.385-1.227-.843-1.862-1.217-.8-.47-1.62-.9-2.44-1.326-.408-.213-.83-.395-1.255-.566-.29-.114-.584-.23-.89-.257-.305-.03-.57-.137-.806-.334-.415-.35-.886-.528-1.37-.69-.264-.09-.534-.16-.79-.267-.485-.21-1.004-.37-1.425-.7-.366-.283-.724-.537-1.14-.698-.07-.024-.12-.115-.18-.175-.44-.424-.88-.832-1.458-.983-.265-.07-.55-.132-.78-.292-.774-.55-1.522-1.15-2.29-1.712-.447-.326-.66-.902-1.012-1.328-.525-.636-1.008-1.31-1.32-2.156-.107-.288-.246-.554-.355-.845-.134-.36-.312-.72-.353-1.105-.043-.407-.212-.695-.36-1.02-.323-.706-.658-1.416-.91-2.168-.284-.85-.488-1.743-.72-2.626-.103-.405-.233-.827.21-1.13.137-.095.115-.265-.01-.344-.1-.067-.23-.1-.35-.1-.165 0-.328.07-.492.078-.618.034-1.21.262-1.8.45.03.195.06.35.083.505.038.263.065.532.12.788.063.307.185.6.22.91.107.92.213 1.833.386 2.734.236 1.242.67 2.376 1 3.56.19.696.448 1.36.672 2.04.1.31.168.64.286.936.35.868.705 1.726 1.203 2.476.36.54.683 1.126 1.063 1.644.385.518.804.995 1.234 1.458.56.6 1.136 1.18 1.722 1.738.36.347.77.618 1.136.96.755.708 1.546 1.346 2.432 1.814.185.098.35.26.52.402.36.307.714.63 1.197.648.122.002.242.088.353.158.72.446 1.43.913 2.16 1.34.683.403 1.388.755 2.078 1.14.16.088.292.227.45.315.328.183.658.355.992.513.22.106.467.154.673.283.81.523 1.554 1.154 2.213 1.91.11.128.19.294.265.46.022.042-.012.162-.053.205-.038.036-.13.04-.173.015-.423-.243-.844-.492-1.26-.75-.123-.08-.227-.202-.342-.3-.116-.1-.2-.058-.28.093-.076.14-.09.257.032.345.055.04.116.06.173.092.49.254.99.482 1.463.772.572.355 1.118.763 1.674 1.15zm20.05-85.803c.274-.824.293-1.682.476-2.648-.247.287-.127.68-.505.76.303-.943.294-1.916.683-2.803.13.877.034 1.764-.06 2.64-.094.88-.24 1.75-.365 2.624.163-.214.286-.446.387-.69.296-.715.433-1.48.478-2.25.068-1.064.04-2.133.15-3.198.134-1.3.014-2.54-.08-3.795-.043-.58-.18-1.14-.296-1.7-.024-.128-.127-.3-.204-.3-.1.002-.22.143-.313.25-.048.056-.06.17-.077.262-.303 1.51-.77 2.933-1.527 4.198-.62 1.034-1.237 2.057-2.078 2.822-.414.374-.806.808-1.155 1.276-.71.947-1.386 1.932-2.07 2.905-.095.137-.232.3-.244.456-.053.627-.457.948-.755 1.313-.81.992-1.512 2.095-2.152 3.24-.683 1.22-1.234 2.554-1.862 3.815-.41.823-.705 1.666-.746 2.618-.004.127-.043.27-.096.38-.166.37-.24.737-.15 1.14.015.09-.083.286-.165.348-.19.144-.513.017-.622-.22-.072-.166-.122-.348-.17-.483l-.39.29c-.06-.147-.144-.284-.168-.442-.077-.44-.142-.882-.183-1.33-.068-.74-.096-1.485-.17-2.223-.14-1.434-.237-2.887-.504-4.294-.21-1.106-.39-2.228-.59-3.346-.026-.153-.083-.295-.165-.568-.125.58-.354.993-.094 1.43.04.07-.01.25-.046.37-.084.298-.19.588-.28.883-.38 1.26-.675 2.57-1.158 3.763-.594 1.47-1.17 2.94-1.597 4.473-.166.597-.522.832-.818 1.197-.07.086-.274.07-.375.007-.07-.043-.094-.252-.092-.388.003-.147.063-.298.104-.492-.224 0-.426-.007-.63-.002-.405.012-.405.014-.49-.48-.133-.765-.256-1.534-.405-2.294-.354-1.796-.72-3.59-1.085-5.394-.135-.68-.272-1.36-.41-2.043-.05-.256-.16-.403-.37-.235-.15.122-.447.103-.315.556.06.21 0 .542-.086.772-.19.492-.444.945-.656 1.424-.305.693-.724 1.336-.75 2.165-.022.65.014 1.287.238 1.872.118.31.197.647.28.975.538 2.06 1.56 3.56 3.02 4.606.597.424 1.28.503 1.905.8.183.087.35.228.54.293.896.31 1.822.5 2.775.367 1.253-.178 2.485-.604 3.71-1.158-.196-.096-.283-.223-.06-.405.083-.07.198-.067.3-.1.988-.308 1.984-.572 2.963-.946.685-.26 1.345-.67 2.018-1.02.296-.154.6-.293.878-.492.157-.113.44-.233.258-.602-.012-.03.065-.197.1-.2.456-.066.716-.572 1.077-.84l.062.095.043.22c.106-.07.24-.11.313-.22.585-.875 1.186-1.735 1.727-2.656.42-.72.768-1.51 1.133-2.28.207-.433.38-.888.57-1.332.048-.112.1-.223.205-.462.036.515-.128.817-.25 1.136-.12.3-.227.61-.337.914.638-.9 1.182-2.273 1.333-3.24.012-.086.04-.177.075-.254.274-.582.317-1.213.373-1.843l-.004.01zm15.428-14.185c.032.058.063.113.092.17.197-.266.44-.498.59-.8.644-1.3 1.27-2.618 1.89-3.942.413-.892.743-1.867 1.23-2.69.583-.975 1.07-2.004 1.52-3.073.105-.252.146-.547.26-.79.504-1.06 1.045-2.1 1.543-3.168.33-.712.612-1.46.923-2.206-.258-.09-.462-.15-.66-.235-.382-.17-.38-.176-.68.27-.036.055-.077.134-.123.148-.38.12-.34.446-.332.813.005.207-.06.564-.158.63-.4.253-.426.606-.383 1.06.017.164-.034.375-.096.543-.51 1.388-1.024 2.77-1.54 4.145-.116.302-.21.633-.376.885-.503.774-.816 1.676-1.198 2.53-.082.177-.156.41-.142.59.05.634-.378 1.013-.54 1.526-.37 0-.403.455-.533.728-.446.944-.86 1.91-1.254 2.83-.332.828-.592 1.567-.912 2.262-.325.703-.686 1.37-.854 2.163.13-.11.238-.238.308-.39.27-.572.49-1.183.796-1.72.25-.437.245-1.022.61-1.374.04-.037.037-.17.04-.255.007-.182.007-.364-.02-.65zM43.464 148.09c-.576.272-.775.778-.896 1.313-.077.324-.144.594-.418.798-.306.23-.385.644-.243 1.066.584-1.002 1.05-2.03 1.52-3.115.267-.605.532-1.212.796-1.82-.488.354-.767 1.02-.76 1.76zm-21.998 7.786c.125-.26.264-.513.375-.786.246-.614.506-1.202.934-1.7.246-.28.383-.69.568-1.04.034-.068.055-.14.09-.204.112-.204.324-.42.312-.602-.015-.185-.272-.317-.385-.504-.557-.935-1.353-1.51-2.195-2.04-.93-.587-1.76-1.35-2.615-2.086-.957-.83-1.84-1.798-2.975-2.35-.428-.205-.787-.59-1.183-.89-.66-.495-1.314-.994-1.983-1.468-.7-.5-1.39-1.002-1.91-1.78-.263-.388-.595-.71-.89-1.066-.12-.15-.234-.307-.325-.48-.077-.15-.12-.328-.176-.493.144.016.29.03.48.052-.233-.29-.46-.57-.683-.856-.163-.204-.358-.386-.476-.62-.34-.697-.863-1.18-1.334-1.73-.633-.73-1.333-1.39-1.792-2.314-.262-.52-.49-1.062-.758-1.577-.334-.643-.714-1.25-1.04-1.896-.574-1.14-.923-2.393-1.132-3.714-.1-.64-.154-1.3-.264-1.94-.11-.628-.265-1.24-.402-1.862-.01-.054-.03-.117-.063-.153-.546-.66-.6-1.575-.745-2.42-.15-.855-.236-1.742-.272-2.626-.03-.71-.003-1.42-.18-2.11-.017-.066.02-.153.023-.232.018-.33.06-.67.038-.995-.056-.882-.145-1.755-.364-2.61-.195-.768-.086-1.588.094-2.376.17-.76.34-1.52.54-2.273.148-.56.343-1.103.52-1.652.035-.115.085-.225.102-.343.13-.96.245-1.926.39-2.89.07-.48.204-.95.283-1.428.058-.36.068-.727.11-1.087.078-.625.14-1.253.384-1.838.113-.274.156-.588.27-.86.297-.7.52-1.418.574-2.207.802-1.496 1.172-3.234 1.824-4.82.41-.99.864-1.957 1.443-2.825.11-.163.22-.33.296-.518.087-.216-.045-.415-.233-.336-.274.116-.37-.044-.428-.32-.044-.2-.106-.398-.116-.604-.04-.82-.353-1.496-.668-2.174-.217-.466-.42-.938-.623-1.413-.094-.22-.17-.456.173-.446.03 0 .11-.128.1-.16-.057-.17-.12-.344-.206-.49-.026-.043-.15-.027-.212.007-.394.202-.394.205-.46-.32-.074-.62-.13-1.242-.235-1.856-.036-.206-.185-.38-.28-.57-.085-.168-.112-.29.1-.365.084-.032.187-.18.204-.29.05-.358.09-.723.093-1.08.007-.85-.017-1.7-.012-2.553.003-.314.05-.63.088-.945.077-.635.19-1.266.238-1.903.08-1.05.12-2.1.18-3.154.005-.086.027-.177.01-.254-.274-1.242-.113-2.48.15-3.714.196-.927.413-1.853.65-2.77.12-.454.292-.898.47-1.327.29-.697.623-1.373.91-2.075.25-.61.413-1.283.71-1.856.667-1.302 1.216-2.705 2.02-3.923.644-.973 1.147-2.102 1.712-3.167.1-.187.175-.395.286-.57.633-1.003 1.253-2.02 1.922-2.99.835-1.21 1.703-2.393 2.576-3.567.42-.56.87-1.084 1.323-1.597.842-.957 1.477-2.124 2.08-3.33.087-.173.16-.367.268-.516.974-1.345 1.717-2.903 2.497-4.437.332-.655.78-1.22 1.195-1.8.433-.602.967-1.036 1.49-1.497.547-.486 1.024-1.12 1.55-1.656.987-1.002 1.98-1.997 2.993-2.966.688-.66 1.412-1.254 2.114-1.89.36-.325.722-.654 1.06-1.018.718-.777 1.572-1.26 2.41-1.616.793-.336 1.58-.9 2.438-.815.106.012.245-.036.308.033.284.32.553.104.84-.052.702-.384 1.418-.722 2.116-1.13.748-.433 1.482-.93 2.223-1.39.267-.163.543-.285.805-.448.13-.082.24-.218.36-.33.146-.08.295-.162.44-.246 1.572-.77 3.112-1.673 4.738-2.227.697-.237 1.373-.64 2.064-.968.014-.008.036-.008.05-.022.113-.113.224-.228.337-.34.08.246.15.163.28.002.096-.113.255-.146.392-.182.14-.04.284-.02.423-.053.123-.03.238-.106.36-.153.922-.368 1.844-.766 2.774-1.092.56-.197 1.137-.278 1.71-.413.178-.04.356-.07.53-.122.14-.043.26-.132.38.065.047.077.232.026.353-.003.392-.098.784-.208 1.173-.318.36-.1.664-.28.987-.59.41-.393.92-.63 1.407-.82.575-.225 1.174-.33 1.76-.484.123-.032.253-.034.373-.087 1.126-.513 2.25-.438 3.375-.455.645-.01 1.29-.057 1.934-.088.09-.002.18-.014.267 0 1.12.21 2.243-.144 3.38-.37.795-.157 1.606-.042 2.404.018.67.052 1.32.223 1.99.302.33.04.683-.05 1.014-.007.63.08 1.25.237 1.88.326.56.08 1.13.104 1.69.168.23.024.455.094.683.144-.218-1.112-.025-2.26.45-3.392.18-.436.412-.777.792-.885.07-.02.147-.05.207-.11.673-.698 1.476-.806 2.227-1.148.3-.142.654-.142.962-.087.206.036.473.21.54.437.202.666.356 1.378.464 2.097.12.8-.144 1.602-.317 2.393-.024.115-.084.225-.106.34-.177.976-.72 1.484-1.37 1.832-.33.174-.666.308-1.003.433-.166.058-.238.153-.294.374-.228.9-.493 1.762-.904 2.594-.76 1.533-1.406 3.14-2.12 4.693-.354.77-.775 1.49-1.14 2.25-.325.684-.61 1.4-.917 2.094-.61 1.388-1.224 2.77-1.833 4.152-.572 1.296-1.17 2.577-1.698 3.893-.69 1.712-1.323 3.45-1.975 5.173-.546 1.44-1.06 2.897-1.636 4.313-.446 1.1-.96 2.157-1.447 3.23-.65 1.432-1.308 2.856-1.95 4.29-.81 1.81-1.614 3.623-2.41 5.433-.275.62-.527 1.254-.792 1.882l-.9 2.165c-.45 1.06-.89 2.124-1.348 3.174-.647 1.486-1.313 2.956-1.953 4.437-.314.73-.607 1.476-.89 2.22-.333.884-.663 1.773-.975 2.667-.45 1.297-.888 2.6-1.328 3.894l-1.11 3.27c-.016.06-.052.123-.052.183.014 1.07-.568 1.887-.936 2.788-.597 1.46-1.223 2.9-1.83 4.346-.283.67-.557 1.345-.824 2.02-.65 1.643-1.284 3.285-1.93 4.915-.39.98-.793 1.948-1.197 2.912-.472 1.13-.95 2.256-1.434 3.375-.568 1.305-1.145 2.6-1.723 3.89-.02.054-.067.09-.132.172-.148-.21-.208-.414-.1-.697.48-1.27.948-2.548 1.426-3.823.368-.98.74-1.957 1.112-2.933.252-.654.526-1.3.76-1.965.183-.525.286-1.09.474-1.614.404-1.132.822-2.258 1.265-3.376.623-1.567 1.26-3.13 1.92-4.69.53-1.25 1.115-2.473 1.64-3.737.332-.795.587-1.635.878-2.457.276-.78.56-1.558.755-2.385-.19.467-.373.937-.57 1.4-.457 1.067-.92 2.13-1.378 3.19-.068.154-.12.317-.18.475-.537 1.377-1.066 2.753-1.607 4.117-.628 1.57-1.273 3.126-1.903 4.69-.57 1.423-1.123 2.852-1.696 4.267-.686 1.69-1.443 3.34-2.052 5.05-.356 1.003-.714 1.996-1.116 2.964-.394.933-.815 1.846-1.24 2.805.64.27 1.334.553 2.02.852.392.173.793.34 1.156.58.366.238.737.343 1.157.355.22.005.47.087.636.24.59.547 1.186 1.072 1.69 1.755.726.978 1.35 2.052 1.91 3.157.54 1.06.894 2.26 1.344 3.385.24.6.3 1.263.363 1.927.04.405.014.79-.152 1.17-.03.074-.064.156-.068.23-.03 1.278-.53 2.424-.915 3.6-.324.99-.695 1.946-1.24 2.797-.333.517-.693 1.008-1.04 1.51-.358.517-.707 1.042-1.082 1.54-.116.152-.313.214-.505.34.206.26.057.58-.07.914-.214.564-.363 1.158-.695 1.66-.063.093-.1.256-.174.285-.56.23-.723.864-.992 1.373-.435.827-.832 1.685-1.24 2.53-.064.135-.12.296-.124.438-.017.758-.276 1.44-.54 2.125-.114.304-.186.63-.275.944-.3 1.06-.542 2.126-.58 3.226-.01.314-.133.63-.18.947-.09.624-.16 1.25-.254 1.873-.02.14-.082.354-.168.4-.238.125-.277.374-.366.597-.265.647-.49 1.32-.794 1.94-.262.536-.603 1.02-.914 1.527-.038.06-.1.103-.144.16-.29.417-.51.842-.128 1.357.243-.515.472-1.04.727-1.546.158-.313.348-.61.54-.9.03-.046.147-.046.212-.025.03.01.05.137.03.197-.095.307-.19.616-.32.91-.403.91-.81 1.818-1.243 2.708-.22.45-.498.86-.734 1.297-.113.208-.2.438-.286.664-.272.7-.472 1.442-.823 2.082-.536.983-1.16 1.908-1.775 2.83-.676 1.013-1.492 1.87-2.312 2.715-.25.264-.457.595-.67.904-.674.998-1.36 1.986-2 3.003-.224.36-.36.798-.49 1.215-.06.187.007.415-.013.623-.072.88-.5 1.598-.97 2.262-.367.523-.692 1.07-.992 1.635-.325.62-.69 1.19-1.126 1.726-.422.518-.884.97-1.34 1.43-.773.788-1.653 1.404-2.584 1.88-.936.474-1.785 1.097-2.653 1.715-.83.593-1.38 1.453-2.04 2.208-.096.108-.123.29-.193.432-.536 1.038-.793 2.16-.98 3.31-.107.653-.004 1.262.07 1.89.037.33-.037.683-.076 1.026-.007.055-.074.113-.125.15-.14.1-.27.157-.424.023-.202-.175-.354-.367-.34-.684.013-.232.123-.362.328-.376.163-.012.206-.09.173-.28-.048-.288-.063-.588-.113-.878-.012-.075-.116-.2-.135-.188-.104.053-.24.127-.275.228-.04.12.012.276.012.417-.003.27-.142.51-.34.595-.245.1-.346-.077-.48-.26-.28-.383-.33-.846-.378-1.318-.066-.662-.124-1.326-.18-1.992-.01-.106-.004-.216.013-.32.137-.953.23-1.92.515-2.85.245-.81.625-1.536 1.176-2.15.686-.77 1.36-1.554 2.018-2.357.67-.817 1.33-1.647 1.956-2.512.745-1.026 1.39-2.146 1.895-3.354.195-.464.29-.977.428-1.466.042-.142.083-.283.13-.42.09-.266.134-.508.04-.793-.09-.26-.096-.567-.106-.858-.017-.618.017-1.25-.034-1.865-.084-1.038-.245-2.054-.8-2.898-.15-.23-.22-.534-.38-.74-.405-.51-.84-.99-1.266-1.48-.094-.11-.195-.11-.272.044-.053.096-.086.202-.13.302-.488 1.17-.974 2.338-1.467 3.503-.29.682-.58 1.368-.888 2.04-.375.822-.772 1.627-1.154 2.445-.402.867-.794 1.738-1.19 2.61-.412.914-.838 1.825-1.233 2.748-.423.983-.832 1.973-1.23 2.968-.38.962-.766 1.92-1.098 2.895-.356 1.045-.7 2.09-.897 3.183-.017.09-.027.18-.055.262-.332.968-.662 1.94-1.01 2.896-.09.244-.222.482-.378.68-.073.094-.258.16-.36.125-.162-.056-.12-.25-.066-.406.2-.564.406-1.125.6-1.693.136-.4.254-.807.374-1.214.188-.63.37-1.26.556-1.894.144-.494.264-.995.435-1.477.343-.973.706-1.944 1.07-2.915.463-1.242.91-2.494 1.416-3.724.683-1.66 1.426-3.3 2.124-4.967.6-1.442 1.188-2.892 1.75-4.36.18-.47.21-1.002.37-1.484.338-1.016.79-1.98 1.303-2.905.067-.124.127-.258.187-.393.16-.37.16-.37-.175-.558-.16.416-.303.845-.474 1.258-.264.644-.55 1.277-.82 1.92-.235.578-.454 1.163-.687 1.74-.17.425-.347.844-.52 1.264-.363.894-.705 1.798-1.094 2.673-.5 1.122-1.062 2.206-1.543 3.33-.354.822-.75 1.62-1.12 2.424-.427.922-.82 1.86-1.24 2.782-.428.94-.82 1.897-1.23 2.844-.355.83-.72 1.654-1.072 2.488-.197.47-.368.952-.55 1.43-.335.88-.67 1.754-1 2.627-.232.61-.458 1.22-.7 1.82-.215.533-.458 1.053-.672 1.587-.234.585-.448 1.178-.672 1.767-.14.374-.33.7-.73.72-.094.004-.228-.04-.27-.118-.038-.07.013-.223.06-.32.148-.332.335-.644.465-.982.537-1.405 1.066-2.817 1.59-4.236.354-.96.666-1.944 1.046-2.894.33-.834.576-1.71 1.002-2.505.272-.5.438-1.07.6-1.638l-.275.53c-.03-.017-.065-.037-.1-.053.025-.097.035-.2.073-.287.563-1.266 1.136-2.534 1.7-3.81.16-.356.275-.738.432-1.1.098-.225.235-.43.353-.65.07-.045.154-.074.207-.14.072-.09.12-.205.176-.31.26-.56.524-1.12.832-1.78-.38.126-.262.737-.707.596.28-.59.565-1.17.834-1.756.133-.288.25-.585.364-.885.066-.178.013-.504.33-.308.015.012.106-.08.128-.137.276-.803.813-1.48.916-2.375.02-.15.128-.295.2-.44.168-.335.35-.663.51-1.006.103-.22.125-.45.012-.686-.044-.088-.04-.25.002-.347.116-.26.262-.498.4-.747.264.026.27-.245.358-.427z" mask="url(#b)"/></g><path fill="#514745" d="M572.418 222.746c.032-.158.034-.27.075-.364.048-.12.113-.3.19-.32.09-.02.243.07.296.167.14.246.285.334.554.205.142-.072.356.168.354.362-.005.204-.06.407-.272.436-.166.02-.336-.012-.5-.03-.09-.01-.173-.056-.262-.063-.116-.005-.286.06-.337-.005-.08-.1-.075-.285-.1-.39M567.288 206.173c-.056.105-.104.22-.176.31-.053.066-.137.095-.207.14-.04-.33.118-.56.337-.853.022.182.034.293.046.403M571.466 195.876c-.087.182-.094.453-.36.427.143-.518.237-.73.51-1.077-.066.276-.107.463-.15.65M594.6 53.782c-.143.084-.292.166-.437.247-.248-.274-.065-.427.13-.55.238-.15.322-.002.308.302M591.717 164.513c-.043-.1-.108-.194-.128-.302-.015-.098-.008-.25.04-.304.056-.062.2-.09.263-.043.262.192.507.417.618.82-.233.132-.4-.03-.58-.043-.07-.04-.143-.084-.213-.127M616.822 53.718c.585.17.585.17.885.002l-.885-.002zm3.61-.336c.003-.058.003-.115.005-.173l-2.013-.135c-.002.03-.005.058-.01.086.674.073 1.345.148 2.02.222zm1.02 3.186c-.317-.544-.24-.82.287-.966.28-.08.566-.113.882-.175-.412-.352-1.165-.06-1.124-1.122-.15.578-.28 1.12-.385 1.666-.08.416-.03.485.34.598zm-1.512-2.397c-.39-.22-.453-.227-1.095-.143.118.017.19.014.255.033.318.094.313.147.173.557-.134.402-.324.517-.628.496-.35-.026-.75-.122-1.053.065-.354.22-.65.17-.98.163-.37-.004-.757-.107-1.14.26.35.172.662.338.98.48.077.035.175.023.26-.006.562-.196 1.125-.3 1.69-.218.123.017.304-.055.397-.17.387-.482.752-.997 1.14-1.515zm2.708 3.75c-.216-.062-.414-.124-.616-.18-.375-.1-.76-.16-1.12-.302-.5-.196-.63-.54-.56-1.25.035-.344.06-.69.1-1.224-.368.535-.763.9-.9 1.362-.183.616-.49.56-.806.62-.19.04-.387-.018-.582 0-.2.02-.413.003-.627.224.103.122.18.204.25.295.315.398.652.784.664 1.436.005.188-.04.523-.117.564-.36.194-.49.652-.74.96-.283.347-.528.75-.865 1.24.505-.28.895-.48 1.275-.7.402-.236.794-.502 1.196-.733.13-.07.278-.092.415-.085.065.003.147.106.17.192.164.645.563 1.587.907 2.052.032-.368.063-.682.08-.996.038-.733.084-1.472.09-2.203.004-.292.083-.45.275-.543.49-.245.984-.475 1.51-.727zm-6.21-3.538c-.102-.21-.482-.365-.05-.657-.138-.336.155-.59.165-.902.01-.32.173-.374.382-.374.618-.005 1.25-.085 1.862-.037.664.056 1.316.22 1.97.336.152.025.303.097.455.073.28-.045.416.12.387.453-.052.595.276.66.538.835.026-.04.053-.078.082-.117-.114-.103-.236-.194-.337-.314-.16-.19-.113-.437.113-.53.137-.058.288-.075.426-.058.522.065 1.03.122 1.5.472.34.254.806.242 1.213.357.185.054.368.12.548.193.198.077.337.233.294.547-.04.3.082.412.262.484.425.168.843.367 1.283.487.234.065.323.207.332.49.012.254-.067.415-.276.43-.196.01-.39-.006-.586.018-.207.027-.416.1-.62.12-.23.022-.46.026-.683-.002-.29-.036-.574-.096-.877.03-.635.264-1.227.123-1.814-.078-.213-.07-.44-.084-.655-.125-.012.048-.022.098-.032.146.226.06.448.124.674.184.137.036.276.06.41.11.63.237.76.518.634 1.407.554-.14 1.054-.03 1.516.3.166.116.296.27.21.53-.087.274-.29.262-.467.236-.07-.01-.143-.02-.203-.058-.568-.352-1.222-.268-1.84-.307-.453-.025-.936.198-1.48.325.164.34.356.32.54.348.552.08 1.11.156 1.656.27.2.044.385.178.556.312.064.053.117.24.09.338-.026.103-.16.245-.238.247-.423.003-.798.175-1.154.53-.1.098-.272.084-.41.094-.338.028-.673.048-1.01.05-.22.002-.317.127-.367.412-.088.482-.182.967-.322 1.432-.168.568-.373.613-.702.24-.38-.43-.67-.95-.885-1.545-.062-.158-.158-.29-.218-.448-.135-.345-.34-.372-.614-.213-.567.328-1.142.645-1.712.96-.116.066-.238.147-.354.16-.096.01-.2-.053-.28-.123-.042-.04-.076-.19-.05-.243.193-.405-.28-.73.03-1.165.25-.353.46-.76.68-1.15.096-.174.185-.358.258-.55.175-.463.15-.825-.178-1.127-.29-.266-.525-.626-.773-.954-.092-.12-.215-.272-.217-.428-.01-.393-.154-.47-.428-.482-.366-.02-.727-.115-1.087-.194-.12-.024-.24-.075-.337-.156-.057-.048-.07-.182-.103-.278.073-.048.14-.108.212-.14.05-.018.105.006.16 0 .096-.006.188-.018.123-.203-.1-.303.074-.373.24-.418.142-.04.29-.072.43-.062.39.026.74-.144 1.124-.518zM570.75 82.976c-.068.403-.088.746-.19 1.04-.165.473-.2.883.004 1.333.147.323.04.498-.248.647-.25.13-.486.297-.73.446.18.103.33.084.477.067.157-.017.313-.034.47-.043.423-.024.538.12.553.683.01.398.017.796.026 1.194.234-.4.43-.794.52-1.216.096-.467.28-.697.64-.76.22-.038.44-.12.66-.184.605-.175 1.187-.45 1.848-.83-.317-.117-.54-.184-.757-.288-.315-.148-.604-.242-.92.108-.175.195-.372.06-.415-.23-.044-.3.033-.56.173-.822.13-.24.21-.52.314-.782-.032-.028-.065-.055-.1-.08-.208.325-.567.378-.718.85-.09.278-.34.208-.5.065-.18-.16-.332-.367-.5-.552-.19-.206-.383-.407-.607-.647zm-4.314 5.747c-.16.093-.315.23-.48.258-.11.02-.225-.116-.34-.183.053-.127.094-.27.16-.38.056-.083.148-.124.222-.184.118-.09.2-.177.068-.35-.16-.218-.072-.398.1-.546.155-.132.294-.264.155-.537-.028-.053.01-.21.054-.276.067-.103.163-.173.255-.247.89-.777 1.78-1.56 2.683-2.325.272-.23.308-.554.277-.887-.044-.49.13-.875.34-1.247.266-.475.492-.52.82-.173.3.32.588.657.884.978.157.173.265.16.498-.004.755-.53 1.504-1.143 2.384-1.24.096-.013.2-.085.286-.154 1.152-.91 2.307-1.827 3.462-2.74.076-.058.16-.116.245-.128.39-.062.785-.045 1.165-.282.065-.04.253.122.304.25.037.092-.035.375-.102.41-.727.366-1.213 1.19-1.862 1.69-.092.07-.193.124-.29.167-.653.29-.8.97-.882 1.77.24.002.546-.23.664.225.015.047.195.07.267.02.188-.13.35-.323.534-.457.076-.054.187-.035.28-.05 0 .142.044.336-.01.41-.208.28-.425.576-.677.756-.662.47-1.345.882-2.035 1.326.106.213.22.398.293.61.088.238.02.416-.196.52-.173.083-.337.205-.498.327-.676.512-1.38.93-2.155 1.033-.887.12-.89.11-1.28 1.158-.148.39-.283.785-.413 1.178-.117.352-.298.568-.603.513-.198-.035-.282.066-.34.3-.048.21-.105.475-.34.403-.196-.055-.25-.26-.234-.51.004-.1-.015-.204-.032-.386-.156.146-.267.242-.373.347-.214.21-.425.39-.707.41-.144.01-.29.132-.433.214-.127.074-.286.21-.356-.005-.054-.154-.05-.482.023-.54.22-.18.284-.37.243-.668-.01-.063.09-.16.147-.228.16-.202.32-.415.498-.592.157-.163.338-.288.496-.473-.853-.002-1.657.123-2.37.887-.526.56-1.127 1.006-1.695 1.5-.14.125-.31.204-.403-.014-.048-.12-.033-.365.03-.468.158-.237.355-.44.552-.625.25-.238.52-.442.78-.657-.02-.036-.042-.07-.064-.103zM587.495 67.77c-.093.06-.19.12-.283.184-.893.6-1.783 1.215-2.682 1.8-.13.086-.313.108-.45.065-.26-.08-.298-.378-.07-.596.262-.247.55-.44.837-.633.462-.31.93-.608 1.405-.895.257-.16.524-.298.794-.418.21-.093.397.113.45.492M587.392 74.295c-.082.302-.147.566-.22.822-.09.302-.2.595-.275.9-.092.36-.224.726-.015 1.085.04.072-.046.27-.074.41-.087-.038-.205-.04-.258-.12-.24-.343-.33-.767-.204-1.237.17-.645.37-1.282.563-1.925.056-.192.128-.44.32-.35.09.04.114.278.162.415M586.108 95.795c-.17.194-.26.348-.376.412-.685.396-1.376.77-2.068 1.146-.077.04-.176.075-.24.043-.05-.023-.075-.155-.083-.244 0-.043.054-.122.098-.15.77-.493 1.537-.986 2.316-1.454.062-.036.192.127.354.247M611.047 94.285c.625.218 1.25.43 1.87.664.07.023.1.18.146.272-.075.04-.147.096-.227.117-.065.016-.134.004-.202-.01-.56-.122-1.118-.247-1.68-.372-.05-.012-.116.005-.148-.028-.09-.1-.238-.207-.243-.33-.012-.25.176-.222.308-.236.054-.007.105 0 .158 0 .004-.027.012-.053.02-.08M599.912 95.488c.116-.268.21-.527.337-.76.203-.38.632-.37.83-.012.032.062.114.084.174.12.07.038.142.072.212.108-.043.093-.065.228-.125.27-.458.312-.928.55-1.428.274M587.428 71.773c-.034-.343.15-.68.356-.97.084-.12.284-.107.428-.155.017.187.072.38.036.554-.057.278-.202.535-.252.813-.053.307-.21.482-.392.486-.226.006-.205-.28-.188-.512l.012-.215M564.89 90.813c.052.06.134.108.165.192.104.27-.065.67-.375.935-.216.185-.452.173-.606-.043-.115-.163-.154-.343.026-.5.205-.172.412-.34.62-.505.04-.033.095-.045.17-.08"/><path fill="#514745" d="M621.94 61.795c.294.117.56.206.81.335.158.082.237.293.117.5-.067.112-.257.195-.36.167-.25-.07-.496-.183-.71-.346-.08-.06-.092-.308-.085-.476.003-.057.154-.124.23-.18M572.536 104.34c-.074.098-.132.21-.21.282-.314.286-.627.566-.952.823-.084.067-.216.033-.327.048.056-.123.087-.278.164-.365.318-.34.643-.67.982-.98.058-.055.183-.012.274.014.03.007.04.1.07.177M582.68 96.524c0-.274.123-.374.322-.427.298-.074.594-.194.895-.28.072-.024.156 0 .23.002-.03.112-.038.272-.098.332-.417.39-.867.554-1.357.362l.007.01M606.525 88.62c.7-1.1 1.397-2.2 2.1-3.307.033.027.067.053.098.08-.15.287-.288.584-.45.86-.39.662-.78 1.326-1.19 1.964-.13.203-.33.333-.496.498-.02-.033-.04-.064-.062-.096"/></g></svg>